<svg width="24" height="24" viewBox="0 0 24 24" fill="none" xmlns="http://www.w3.org/2000/svg">
  <rect x="6" y="3" width="12" height="16" rx="2" fill="#F4A314" opacity="0.7"/>
  <rect x="8" y="5" width="8" height="5" rx="1" fill="white"/>
  <rect x="8" y="11" width="2" height="1.5" rx="0.5" fill="#F4A314"/>
  <rect x="11" y="11" width="2" height="1.5" rx="0.5" fill="#F4A314"/>
  <rect x="14" y="11" width="2" height="1.5" rx="0.5" fill="#F4A314"/>
  <rect x="8" y="13" width="2" height="1.5" rx="0.5" fill="#F4A314"/>
  <rect x="11" y="13" width="2" height="1.5" rx="0.5" fill="#F4A314"/>
  <rect x="14" y="13" width="2" height="1.5" rx="0.5" fill="#F4A314"/>
  <rect x="8" y="15" width="2" height="1.5" rx="0.5" fill="#F4A314"/>
  <rect x="11" y="15" width="2" height="1.5" rx="0.5" fill="#F4A314"/>
  <rect x="14" y="15" width="2" height="1.5" rx="0.5" fill="#F4A314"/>
  <rect x="3" y="20" width="18" height="2" rx="1" fill="#F4A314"/>
</svg>