<svg width="24" height="24" viewBox="0 0 24 24" fill="none" xmlns="http://www.w3.org/2000/svg">
  <path d="M10 13C10.4295 13.5741 10.9774 14.0491 11.6066 14.3929C12.2357 14.7367 12.9315 14.9411 13.6467 14.9923C14.3618 15.0435 15.0796 14.9403 15.7513 14.6897C16.4230 14.4392 17.0331 14.0471 17.54 13.54L20.54 10.54C21.4508 9.59695 21.9548 8.33394 21.9434 7.02296C21.932 5.71198 21.4061 4.45791 20.4791 3.53087C19.5521 2.60383 18.298 2.0779 16.987 2.0665C15.676 2.0551 14.413 2.55918 13.47 3.47L11.75 5.18" stroke="#F4A314" stroke-width="2" stroke-linecap="round" stroke-linejoin="round"/>
  <path d="M14 11C13.5705 10.4259 13.0226 9.95086 12.3934 9.60714C11.7643 9.26343 11.0685 9.05892 10.3533 9.00768C9.63819 8.95645 8.92037 9.05965 8.24866 9.31023C7.57696 9.56081 6.96693 9.95285 6.46 10.46L3.46 13.46C2.54924 14.403 2.04517 15.6661 2.05655 16.977C2.06794 18.288 2.59387 19.5421 3.52091 20.4691C4.44795 21.3962 5.70202 21.9221 7.01300 21.9335C8.32398 21.9449 9.58699 21.4408 10.53 20.53L12.24 18.82" stroke="#F4A314" stroke-width="2" stroke-linecap="round" stroke-linejoin="round"/>
</svg>